<?xml version="1.0" encoding="UTF-8" standalone="no"?>
<svg
   xmlns:dc="http://purl.org/dc/elements/1.1/"
   xmlns:cc="http://creativecommons.org/ns#"
   xmlns:rdf="http://www.w3.org/1999/02/22-rdf-syntax-ns#"
   xmlns:svg="http://www.w3.org/2000/svg"
   xmlns="http://www.w3.org/2000/svg"
   viewBox="0 0 1333.3333 1333.3333"
   height="1333.3333"
   width="1333.3333"
   xml:space="preserve"
   id="svg2"
   version="1.1"><metadata
     id="metadata8"><rdf:RDF><cc:Work
         rdf:about=""><dc:format>image/svg+xml</dc:format><dc:type
           rdf:resource="http://purl.org/dc/dcmitype/StillImage" /></cc:Work></rdf:RDF></metadata><defs
     id="defs6"><clipPath
       id="clipPath18"
       clipPathUnits="userSpaceOnUse"><path
         id="path16"
         d="M 0,1000 H 1000 V 0 H 0 Z" /></clipPath></defs><g
     transform="matrix(1.3333333,0,0,-1.3333333,0,1333.3333)"
     id="g10"><g
       id="g12"><g
         clip-path="url(#clipPath18)"
         id="g14"><g
           transform="translate(500,17.3809)"
           id="g20"><path
             id="path22"
             style="fill:#ea3f7a;fill-opacity:1;fill-rule:nonzero;stroke:none"
             d="m 0,0 c -65.148,0 -128.353,12.762 -187.861,37.932 -57.472,24.308 -109.083,59.105 -153.402,103.424 -44.32,44.32 -79.116,95.931 -103.425,153.402 -25.169,59.508 -37.931,122.713 -37.931,187.861 0,65.148 12.762,128.353 37.931,187.86 24.309,57.472 59.105,109.084 103.425,153.403 44.319,44.32 95.93,79.116 153.402,103.425 59.508,25.17 122.713,37.931 187.861,37.931 65.148,0 128.353,-12.761 187.861,-37.931 57.472,-24.309 109.083,-59.105 153.402,-103.425 44.32,-44.319 79.116,-95.931 103.425,-153.403 25.169,-59.507 37.931,-122.712 37.931,-187.86 0,-65.148 -12.762,-128.353 -37.931,-187.861 C 420.379,237.287 385.583,185.676 341.263,141.356 296.944,97.037 245.333,62.24 187.861,37.932 128.353,12.762 65.148,0 0,0" /></g><g
           transform="translate(213.3555,773.8862)"
           id="g24"><path
             id="path26"
             style="fill:#ffffff;fill-opacity:1;fill-rule:nonzero;stroke:none"
             d="m 0,0 c -3.852,-3.7 -7.062,-7.237 -9.661,-10.494 -2.686,-3.258 -4.811,-6.063 -6.405,-8.41 -1.974,-2.783 -3.518,-5.339 -4.594,-7.7 0.269,0.149 1.637,0.787 4.116,1.853 2.548,1.121 5.607,2.666 9.2,4.661 3.6,1.941 7.449,4.442 11.59,7.437 4.025,2.957 7.807,6.278 11.335,10.009 3.47,3.75 5.899,6.652 7.329,8.758 1.381,2.1 2.235,3.684 2.452,4.733 0.217,1.044 0.084,1.714 -0.379,2.103 -0.473,0.331 -0.785,0.625 -1.036,0.859 -0.212,0.252 -0.852,0.366 -1.919,0.366 -1.013,0 -2.576,-0.46 -4.516,-1.325 C 15.494,11.966 13.025,10.533 10.167,8.558 7.235,6.587 3.817,3.762 0,0 m 29.535,-53.327 c 0.936,0.237 2.239,0.638 3.859,1.231 1.648,0.583 3.278,1.101 5.002,1.565 1.649,0.473 3.247,0.904 4.714,1.24 1.435,0.354 2.404,0.496 2.965,0.496 0.495,0 0.452,-0.269 -0.267,-0.832 -0.725,-0.615 -2.354,-1.627 -4.888,-3.004 -3.849,-2.098 -6.943,-3.787 -9.175,-5.15 -2.255,-1.345 -4.313,-2.324 -6.052,-2.96 -1.746,-0.637 -3.458,-0.909 -5.227,-0.886 -1.761,0.054 -3.981,0.45 -6.654,1.155 -2.663,0.721 -4.928,1.854 -6.727,3.558 -1.781,1.692 -3.408,3.438 -4.798,5.177 -1.402,1.734 -2.675,3.328 -3.787,4.711 -1.088,1.42 -2.244,2.21 -3.378,2.426 -1.29,0.257 -2.65,0.128 -4.021,-0.346 -1.422,-0.428 -2.855,-1.111 -4.365,-1.95 -1.52,-0.907 -3.041,-1.899 -4.486,-3.03 -1.423,-1.091 -2.91,-2.17 -4.271,-3.214 -1.399,-1.068 -3.029,-2.309 -4.907,-3.774 -1.832,-1.445 -3.75,-2.837 -5.694,-4.263 -1.907,-1.422 -3.676,-2.593 -5.283,-3.567 -1.679,-1.014 -2.847,-1.5 -3.707,-1.5 -0.473,0 -1.111,0.249 -1.888,0.8 -0.831,0.518 -1.65,1.131 -2.395,1.898 -0.762,0.777 -1.38,1.594 -1.918,2.446 -0.506,0.888 -0.66,1.607 -0.401,2.168 0.107,0.476 0.401,1.769 0.939,3.894 0.528,2.078 1.889,4.796 4.098,8.204 6.989,10.937 12.928,19.94 17.848,26.978 4.895,7.033 9.173,12.823 12.928,17.212 3.709,4.433 7.084,7.948 10.137,10.526 3.039,2.544 6.081,4.828 9.26,6.802 3.246,1.97 6.382,3.505 9.34,4.529 3.007,1.056 5.595,1.53 7.905,1.507 2.219,-0.085 4.053,-0.72 5.508,-1.918 1.38,-1.26 2.05,-3.114 2.05,-5.693 0,-2.576 -0.962,-5.346 -2.957,-8.303 -1.95,-2.975 -4.459,-5.907 -7.362,-8.829 -2.892,-2.903 -5.941,-5.673 -9.178,-8.197 -3.171,-2.598 -5.864,-4.746 -8.056,-6.46 -2.24,-1.746 -5.155,-3.719 -8.688,-5.797 -3.55,-2.127 -7.053,-4.113 -10.503,-6.019 -3.43,-1.941 -6.47,-3.528 -9.081,-4.886 -2.608,-1.347 -4.131,-2.08 -4.462,-2.187 -0.359,-0.829 -0.757,-1.632 -1.211,-2.452 -0.493,-0.697 -0.979,-1.539 -1.614,-2.479 -0.553,-0.904 -1.198,-1.917 -1.858,-2.954 -1.55,-2.23 -2.823,-4.472 -3.805,-6.811 -0.971,-2.31 -1.014,-3.725 -0.042,-4.198 1.024,-0.463 2.372,-0.075 4.078,1.241 1.689,1.283 3.361,2.533 5,3.839 0.755,0.69 2.352,1.853 4.679,3.472 2.391,1.638 4.948,3.299 7.798,4.968 2.855,1.727 5.66,3.184 8.311,4.432 2.653,1.189 4.768,1.749 6.278,1.652 1.393,-0.237 2.631,-0.765 3.677,-1.532 1.014,-0.742 2.07,-1.756 2.974,-2.94 0.908,-1.223 1.909,-2.626 2.861,-4.21 0.968,-1.562 2.217,-3.157 3.597,-4.828 1.415,-1.62 2.805,-2.748 4.335,-3.366 1.415,-0.645 2.847,-1.032 4.305,-1.143 1.48,-0.147 2.89,0 4.41,0.336 1.422,0.334 2.847,0.72 4.25,1.215" /></g><g
           transform="translate(295.1777,737.0273)"
           id="g28"><path
             id="path30"
             style="fill:#ffffff;fill-opacity:1;fill-rule:nonzero;stroke:none"
             d="M 0,0 C -0.152,0 -0.271,0.097 -0.359,0.301 -0.498,0.525 -0.618,0.755 -0.832,0.904 -0.972,1.124 -1.198,1.37 -1.413,1.736 -2.374,2.88 -3.463,3.538 -4.843,3.625 -6.171,3.764 -7.798,3.58 -9.791,3.117 -10.743,2.88 -11.854,2.362 -13.209,1.54 c -1.34,-0.785 -2.74,-1.757 -4.163,-2.778 -1.52,-1.056 -2.87,-2.083 -4.24,-3.077 -1.305,-0.979 -2.434,-1.809 -3.214,-2.511 -0.804,-0.733 -1.938,-1.737 -3.428,-3.072 -1.442,-1.338 -2.857,-2.793 -4.28,-4.345 -1.403,-1.587 -2.491,-3.107 -3.321,-4.571 -0.807,-1.46 -1.026,-2.656 -0.7,-3.593 0.58,-1.51 1.898,-2.219 3.979,-2.18 2.014,0.067 4.367,0.563 7.053,1.49 2.748,1.024 5.538,2.447 8.281,4.283 2.693,1.808 4.937,3.35 6.544,4.656 0.83,0.648 1.814,1.649 2.923,2.86 1.098,1.26 2.145,2.431 3.203,3.685 1.064,1.22 1.993,2.319 2.793,3.298 0.818,0.994 1.281,1.502 1.42,1.502 0.207,0.085 1.014,-0.119 2.439,-0.702 1.4,-0.591 2.262,-1.057 2.599,-1.381 0.261,-0.281 0.107,-0.745 -0.444,-1.412 -0.463,-0.723 -1.089,-1.51 -1.812,-2.374 -0.699,-0.882 -1.411,-1.67 -2.167,-2.434 -0.774,-0.758 -1.325,-1.316 -1.669,-1.652 -0.445,-0.615 0.688,-1.475 3.493,-2.735 2.813,-1.211 6.545,-1.889 11.194,-2.001 2.319,-0.115 4.711,0.154 7.118,0.887 2.508,0.678 4.74,1.487 6.856,2.459 2.125,0.929 3.826,1.746 5.199,2.501 1.452,0.775 2.262,1.141 2.509,1.141 0.314,0 0.508,-0.428 0.508,-1.271 0,-0.904 -0.075,-1.442 -0.194,-1.723 -0.183,-0.195 -1.617,-1.014 -4.196,-2.429 -2.501,-1.411 -5.842,-2.736 -9.759,-4.031 -4.095,-1.39 -8.041,-2.016 -11.88,-1.896 -3.852,0.107 -6.934,0.45 -9.298,1.056 -2.284,0.463 -4.203,1.445 -5.65,2.877 -1.487,1.443 -2.382,2.161 -2.736,2.161 -0.239,0 -1.467,-1.072 -3.667,-3.227 -2.188,-2.17 -5.543,-4.367 -9.953,-6.741 -6.136,-3.102 -11.054,-4.614 -14.601,-4.452 -3.571,0.182 -6.154,0.984 -7.785,2.372 -0.786,0.699 -1.326,1.671 -1.468,2.889 -0.162,1.231 0.107,2.771 0.907,4.627 0.72,1.876 2.06,3.998 3.914,6.37 1.856,2.404 4.409,5.187 7.648,8.293 3.286,3.065 6.425,5.566 9.358,7.637 2.976,2.025 5.727,3.667 8.151,4.895 2.404,1.228 4.614,2.073 6.448,2.618 1.878,0.518 3.353,0.745 4.399,0.745 1.059,0.15 2.073,0 3.119,-0.324 C -0.725,9.554 0.256,9.155 1.086,8.647 1.996,8.119 2.738,7.536 3.418,6.891 4.041,6.221 4.342,5.748 4.342,5.414 4.462,5.035 4.322,4.604 3.914,4.011 3.513,3.408 3.06,2.835 2.534,2.177 1.996,1.52 1.475,0.981 0.937,0.561 0.451,0.184 0.106,0 0,0" /></g><g
           transform="translate(335.2031,741.7158)"
           id="g32"><path
             id="path34"
             style="fill:#ffffff;fill-opacity:1;fill-rule:nonzero;stroke:none"
             d="M 0,0 C 0.12,0.259 0.7,0.598 1.747,1.059 2.757,1.532 3.849,1.836 4.97,1.996 6.059,2.203 7.041,2.147 7.873,1.943 8.637,1.674 8.899,1.059 8.53,0 8.204,-1.063 7.581,-2.551 6.697,-4.529 5.834,-6.555 5.013,-8.495 4.195,-10.456 c -0.82,-2.005 -1.499,-3.734 -2.028,-5.177 -0.518,-1.467 -0.635,-2.2 -0.269,-2.2 0,0 1.089,0.636 2.826,1.846 1.723,1.261 3.846,2.736 6.36,4.517 2.516,1.854 5.242,3.804 8.326,5.855 3.009,2.122 5.867,4.043 8.627,5.8 2.716,1.758 5.197,3.191 7.364,4.367 2.133,1.163 3.623,1.649 4.442,1.564 1.197,-0.214 2.21,-0.839 3.234,-1.841 0.992,-0.984 1.856,-2.072 2.653,-3.301 0.743,-1.241 1.351,-2.439 1.867,-3.667 0.525,-1.241 0.948,-2.232 1.143,-3.049 0.369,-0.833 0.832,-2.108 1.423,-3.842 0.583,-1.747 1.198,-3.558 1.791,-5.271 0.668,-1.77 1.325,-3.344 2.045,-4.712 0.693,-1.402 1.308,-2.147 1.923,-2.287 0.571,-0.227 1.592,-0.338 3.007,-0.338 1.52,0 3.192,0.111 5.1,0.338 1.921,0.202 3.969,0.591 6.179,1.064 2.102,0.478 4.172,1.037 6.146,1.707 1.878,0.849 3.754,1.704 5.552,2.608 1.931,0.842 3.551,1.659 5.058,2.404 1.445,0.767 2.676,1.383 3.744,1.824 1.035,0.461 1.66,0.732 1.929,0.732 0.571,-0.117 1.111,-0.625 1.542,-1.497 0.493,-0.874 0.493,-1.413 0,-1.652 -0.215,-0.127 -1.176,-0.668 -2.813,-1.574 -1.739,-0.947 -3.809,-1.996 -6.136,-3.244 -2.437,-1.218 -5.093,-2.452 -7.892,-3.774 -2.85,-1.241 -5.514,-2.32 -7.947,-3.117 -4.909,-1.669 -9.438,-2.576 -13.534,-2.815 -4.185,-0.227 -6.987,0.476 -8.49,2.093 -0.827,0.809 -1.592,1.95 -2.284,3.408 -0.688,1.477 -1.301,3.007 -1.918,4.604 -0.561,1.659 -1.112,3.243 -1.565,4.746 -0.494,1.529 -0.87,2.76 -1.057,3.664 -0.226,0.972 -0.57,1.941 -0.969,3.007 -0.421,1.059 -1.091,1.834 -2.04,2.429 -0.927,0.581 -2.24,0.805 -3.946,0.601 -1.757,-0.162 -4.066,-1.002 -6.891,-2.487 -2.76,-1.557 -5.723,-3.333 -8.797,-5.383 -3.104,-2.028 -6.042,-4.056 -8.79,-6.117 -2.812,-2.035 -5.368,-3.936 -7.578,-5.669 -2.192,-1.757 -3.862,-3.03 -5.037,-3.84 -2.327,-1.983 -3.956,-3.557 -4.893,-4.713 -0.949,-1.141 -2.07,-1.722 -3.528,-1.614 -0.7,0 -1.358,0.233 -2.08,0.635 -0.745,0.398 -1.166,1.013 -1.513,1.759 -0.276,0.752 -0.323,1.659 -0.029,2.79 0.214,1.091 0.797,2.426 1.888,3.916 1.171,1.54 2.456,3.59 3.954,6.221 1.445,2.663 2.86,5.296 4.205,8.057 1.34,2.725 2.536,5.154 3.58,7.247 1.014,2.1 1.674,3.383 1.921,3.834" /></g><g
           transform="translate(465.7354,775.1021)"
           id="g36"><path
             id="path38"
             style="fill:#ffffff;fill-opacity:1;fill-rule:nonzero;stroke:none"
             d="m 0,0 c -5.115,-8.381 -8.306,-15.399 -9.579,-21.072 -1.316,-5.657 -1.65,-10.167 -1.012,-13.51 0.504,-3.999 2.091,-7.147 4.712,-9.477 0.849,0.344 2.448,1.512 4.668,3.408 2.2,1.951 4.594,4.335 7.15,7.18 2.608,2.867 5.11,6.019 7.546,9.524 2.427,3.51 4.475,6.986 6.072,10.511 1.636,3.476 2.643,6.674 3.009,9.535 0.367,2.844 0.311,5.314 -0.097,7.396 -0.376,2.1 -1.056,3.847 -1.931,5.174 -0.882,1.316 -1.619,2.223 -2.351,2.676 -1.037,0.72 -2.392,0.787 -4.089,0.289 C 12.409,11.119 10.673,10.212 8.936,8.994 7.179,7.775 5.496,6.363 3.879,4.736 2.262,3.109 0.924,1.522 0,0 m -30.758,-62.393 c 2.19,0.24 4.487,1.015 6.761,2.382 2.243,1.286 4.283,2.776 6.159,4.347 1.886,1.578 3.354,2.98 4.475,4.206 1.121,1.198 1.596,1.923 1.345,1.996 -0.269,0.089 -0.666,0.809 -1.248,2.19 -0.606,1.345 -1.218,2.782 -1.889,4.302 -0.849,1.734 -1.724,3.722 -2.683,5.899 -1.51,-0.206 -2.855,-0.563 -3.978,-1.004 -1.186,-0.506 -2.308,-1.053 -3.506,-1.758 -1.156,-0.676 -2.352,-1.563 -3.59,-2.557 -1.231,-0.979 -2.663,-2.165 -4.322,-3.577 -1.599,-1.413 -2.795,-3.097 -3.55,-5.068 -0.745,-1.995 -1.057,-3.883 -0.96,-5.694 0.076,-1.802 0.733,-3.282 1.931,-4.443 1.199,-1.163 2.835,-1.552 5.055,-1.221 m 60.517,7.851 c 2.867,0.844 5.672,1.479 8.301,1.943 2.613,0.441 4.81,0.775 6.709,0.979 1.853,0.162 3.168,0.219 3.923,0.162 0.735,-0.072 0.775,-0.289 0.042,-0.635 -0.648,-0.377 -2.306,-1.112 -4.937,-2.262 -2.587,-1.154 -5.672,-2.374 -9.253,-3.548 -3.592,-1.253 -7.287,-2.365 -11.223,-3.344 -3.862,-1.003 -7.442,-1.554 -10.708,-1.684 -3.278,-0.109 -6.069,0.207 -8.42,0.865 -2.32,0.71 -4.251,1.487 -5.673,2.394 -1.465,0.859 -2.586,1.617 -3.418,2.262 -0.83,0.638 -1.295,0.907 -1.564,0.767 -3.483,-2.212 -7.515,-4.262 -12.054,-6.2 -4.531,-1.919 -9.426,-3.515 -14.718,-4.819 -2.546,-0.563 -4.973,-0.453 -7.305,0.289 -2.296,0.755 -4.073,2.083 -5.304,3.924 -1.27,1.859 -1.714,4.176 -1.542,7.011 0.272,2.78 1.737,5.932 4.389,9.424 2.589,3.493 5.402,6.351 8.489,8.476 3.091,2.122 5.939,3.819 8.572,5.067 2.599,1.219 4.819,2.08 6.553,2.534 1.761,0.446 2.623,0.812 2.623,1.036 2.125,8.618 4.517,15.989 7.309,22.031 2.793,6.049 5.696,11.051 8.66,14.943 2.975,3.936 5.845,6.816 8.605,8.754 2.718,1.921 4.973,3.099 6.869,3.57 1.866,0.474 3.894,0.367 5.973,-0.344 2.049,-0.699 3.937,-2.08 5.576,-4.205 1.64,-2.08 2.781,-4.883 3.526,-8.378 0.658,-3.473 0.622,-7.765 -0.185,-12.746 -0.927,-5.144 -3.032,-10.319 -6.253,-15.54 -3.181,-5.269 -6.502,-10.113 -10.052,-14.522 -4.031,-5.122 -8.54,-10.095 -13.443,-14.881 1.163,-1.38 2.825,-2.479 4.98,-3.323 2.157,-0.778 4.574,-1.355 7.289,-1.649 2.686,-0.289 5.553,-0.289 8.562,0 3.01,0.294 6.06,0.871 9.102,1.649" /></g><g
           transform="translate(622.7153,726.6758)"
           id="g40"><path
             id="path42"
             style="fill:#ffffff;fill-opacity:1;fill-rule:nonzero;stroke:none"
             d="m 0,0 c 0.536,-0.084 0.902,-0.473 0.902,-1.108 0,-0.671 -0.239,-1.092 -0.733,-1.309 -0.239,-0.142 -1.056,-0.615 -2.417,-1.39 -1.442,-0.829 -3.233,-1.781 -5.349,-2.805 -2.219,-1.056 -4.461,-2.122 -7.007,-3.254 -2.459,-1.091 -4.896,-2.05 -7.115,-2.88 -2.285,-0.819 -4.49,-1.551 -6.707,-2.276 -2.116,-0.701 -4.123,-1.171 -5.932,-1.381 -1.811,-0.246 -3.363,-0.095 -4.639,0.444 -1.27,0.505 -2.155,1.662 -2.65,3.418 -0.13,0.434 -0.13,1.273 -0.13,2.437 0,1.121 0,2.523 0.087,4.085 0,1.577 0.172,3.227 0.257,4.983 0.09,1.739 0.239,3.43 0.346,5.079 0,1.024 -0.256,2.113 -0.775,3.247 -0.543,1.098 -1.425,1.973 -2.698,2.598 -1.098,0.648 -2.65,0.765 -4.377,0.464 -1.789,-0.379 -3.861,-1.54 -6.233,-3.516 -1.575,-1.273 -3.236,-2.793 -4.915,-4.571 -1.643,-1.747 -3.259,-3.373 -4.682,-5.057 -1.509,-1.62 -2.757,-3.137 -3.903,-4.54 -1.229,-1.393 -2.071,-2.352 -2.502,-2.772 -2.501,-3.277 -4.357,-5.454 -5.327,-6.468 -1.013,-1.072 -2.027,-0.8 -3.191,0.849 -0.496,0.474 -0.388,1.715 0.259,3.668 0.626,1.983 1.338,4.227 2.177,6.634 0.797,2.454 1.466,4.99 1.919,7.633 0.498,2.606 0.391,4.838 -0.324,6.684 -0.707,0.853 -2.068,1.239 -4.138,1.239 -2.05,0 -4.529,-1.022 -7.441,-3.104 -2.307,-1.789 -4.572,-3.665 -6.772,-5.693 -2.264,-2.038 -4.292,-4.053 -6.233,-5.964 -1.943,-1.898 -3.665,-3.72 -5.177,-5.424 -1.485,-1.672 -2.826,-2.965 -3.814,-3.916 -2.245,-1.757 -3.949,-3.137 -5.155,-4.225 -1.273,-1.044 -2.481,-1.468 -3.754,-1.383 -0.712,0 -1.314,0.232 -1.961,0.628 -0.563,0.398 -0.994,1.014 -1.233,1.746 -0.212,0.735 -0.212,1.662 0.132,2.783 0.279,1.121 0.926,2.426 2.025,3.959 1.166,1.39 2.417,3.417 3.93,6.136 1.444,2.651 2.842,5.336 4.27,8.031 1.379,2.651 2.65,5.045 3.749,7.131 1.121,2.122 1.769,3.395 2.05,3.847 0.085,0.269 0.647,0.612 1.594,1.078 0.972,0.441 2.028,0.777 2.955,0.949 1.059,0.162 1.876,0.162 2.547,-0.142 0.752,-0.172 0.929,-0.807 0.563,-1.885 -0.414,-1.047 -0.952,-2.567 -1.839,-4.552 -0.882,-1.971 -1.766,-3.959 -2.651,-5.907 -0.817,-1.996 -1.575,-3.722 -2.133,-5.175 -0.605,-1.47 -0.844,-2.212 -0.563,-2.212 0.09,0 0.885,0.6 2.265,1.779 1.383,1.143 3.129,2.663 5.242,4.429 1.963,1.837 4.16,3.755 6.642,5.77 2.501,2.058 4.81,4.001 7.073,5.793 2.309,1.788 4.337,3.276 6.036,4.474 1.791,1.161 2.98,1.724 3.862,1.724 1.444,0 2.548,-0.354 3.43,-1.153 0.887,-0.72 1.619,-1.672 2.07,-2.781 0.516,-1.111 0.84,-2.332 1.057,-3.667 0.194,-1.338 0.194,-2.556 0.045,-3.567 -0.088,-1.415 -0.262,-2.988 -0.586,-4.737 -0.277,-1.736 -0.516,-3.577 -0.623,-5.605 2.222,2.576 4.569,4.968 7.008,7.277 2.415,2.242 4.789,4.263 6.988,6.031 2.2,1.754 4.248,3.254 6.143,4.538 1.859,1.27 3.347,2.284 4.465,2.996 1.234,0.668 2.439,0.833 3.713,0.444 1.27,-0.444 2.439,-1.156 3.427,-2.2 0.992,-1.059 1.769,-2.439 2.352,-4.14 0.625,-1.685 0.775,-3.496 0.713,-5.492 -0.088,-1.649 -0.326,-3.58 -0.648,-5.789 -0.304,-2.178 -0.496,-4.325 -0.648,-6.363 -0.192,-2.058 -0.214,-3.869 -0.107,-5.543 0.107,-1.595 0.581,-2.574 1.403,-2.92 0.45,-0.246 1.485,-0.291 3.146,-0.09 1.637,0.142 3.453,0.543 5.631,1.049 2.089,0.516 4.163,1.186 6.382,1.961 2.263,0.864 4.313,1.704 6.169,2.675 3.47,1.854 6.211,3.399 8.216,4.595 C -1.881,-0.431 -0.608,0.14 0,0" /></g><g
           transform="translate(660.4536,737.0273)"
           id="g44"><path
             id="path46"
             style="fill:#ffffff;fill-opacity:1;fill-rule:nonzero;stroke:none"
             d="M 0,0 C -0.045,0 -0.237,0.097 -0.324,0.301 -0.496,0.525 -0.628,0.755 -0.777,0.904 -0.927,1.124 -1.166,1.37 -1.425,1.736 -2.265,2.88 -3.476,3.538 -4.786,3.625 -6.168,3.764 -7.828,3.58 -9.816,3.117 -10.72,2.88 -11.841,2.362 -13.154,1.54 c -1.403,-0.785 -2.784,-1.757 -4.186,-2.778 -1.49,-1.056 -2.932,-2.083 -4.205,-3.077 -1.425,-0.979 -2.414,-1.809 -3.298,-2.511 -0.823,-0.733 -1.944,-1.737 -3.369,-3.072 -1.417,-1.338 -2.845,-2.793 -4.354,-4.345 -1.359,-1.587 -2.459,-3.107 -3.234,-4.571 -0.84,-1.46 -1.036,-2.656 -0.733,-3.593 0.603,-1.51 1.919,-2.219 3.924,-2.18 2.028,0.067 4.397,0.563 7.095,1.49 2.803,1.024 5.651,2.447 8.306,4.283 2.736,1.808 4.849,3.35 6.575,4.656 0.755,0.648 1.769,1.649 2.867,2.86 1.079,1.26 2.203,2.431 3.257,3.685 1.033,1.22 1.921,2.319 2.802,3.298 0.78,0.994 1.211,1.502 1.383,1.502 0.279,0.085 1.056,-0.119 2.479,-0.702 1.318,-0.591 2.244,-1.057 2.591,-1.381 0.234,-0.281 0.107,-0.745 -0.498,-1.412 -0.516,-0.723 -1.079,-1.51 -1.789,-2.374 -0.693,-0.882 -1.49,-1.67 -2.2,-2.434 -0.755,-0.758 -1.253,-1.316 -1.684,-1.652 -0.451,-0.615 0.712,-1.475 3.58,-2.735 2.738,-1.211 6.472,-1.889 11.106,-2.001 2.377,-0.115 4.746,0.154 7.182,0.887 2.459,0.678 4.701,1.487 6.814,2.459 2.093,0.929 3.841,1.746 5.285,2.501 1.402,0.775 2.199,1.141 2.436,1.141 0.324,0 0.498,-0.428 0.498,-1.271 0,-0.904 0,-1.442 -0.174,-1.723 -0.28,-0.195 -1.595,-1.014 -4.204,-2.429 -2.568,-1.411 -5.844,-2.736 -9.705,-4.031 -4.163,-1.39 -8.132,-2.016 -11.906,-1.896 -3.902,0.107 -6.944,0.45 -9.313,1.056 -2.31,0.463 -4.185,1.445 -5.695,2.877 -1.423,1.443 -2.307,2.161 -2.676,2.161 -0.217,0 -1.445,-1.072 -3.707,-3.227 -2.224,-2.17 -5.543,-4.367 -9.968,-6.741 -6.188,-3.102 -11.038,-4.614 -14.596,-4.452 -3.518,0.182 -6.127,0.984 -7.7,2.372 -0.863,0.699 -1.336,1.671 -1.488,2.889 -0.214,1.231 0.085,2.771 0.817,4.627 0.777,1.876 2.093,3.998 3.904,6.37 1.878,2.404 4.467,5.187 7.786,8.293 3.216,3.065 6.297,5.566 9.297,7.637 2.975,2.025 5.67,3.667 8.152,4.895 2.416,1.228 4.594,2.073 6.489,2.618 1.769,0.518 3.324,0.745 4.313,0.745 1.104,0.15 2.14,0 3.191,-0.324 C -0.713,9.554 0.259,9.155 1.141,8.647 2.048,8.119 2.738,7.536 3.386,6.891 4.053,6.221 4.399,5.748 4.399,5.414 4.441,5.035 4.357,4.604 3.966,4.011 3.513,3.408 3.042,2.835 2.543,2.177 2.048,1.52 1.485,0.981 0.927,0.561 0.408,0.184 0.104,0 0,0" /></g><g
           transform="translate(735.0708,775.1021)"
           id="g48"><path
             id="path50"
             style="fill:#ffffff;fill-opacity:1;fill-rule:nonzero;stroke:none"
             d="m 0,0 c -5.11,-8.381 -8.301,-15.399 -9.574,-21.072 -1.293,-5.657 -1.639,-10.167 -1.059,-13.51 0.563,-3.999 2.157,-7.147 4.678,-9.477 0.952,0.344 2.549,1.512 4.771,3.408 2.198,1.951 4.595,4.335 7.116,7.18 2.608,2.867 5.092,6.019 7.504,9.524 2.481,3.51 4.529,6.986 6.19,10.511 1.617,3.476 2.566,6.674 2.933,9.535 0.365,2.844 0.365,5.314 -0.087,7.396 -0.429,2.1 -1.014,3.847 -1.921,5.174 -0.902,1.316 -1.657,2.223 -2.325,2.676 -1.081,0.72 -2.461,0.787 -4.123,0.289 C 12.401,11.119 10.695,10.212 8.931,8.994 7.185,7.775 5.5,6.363 3.796,4.736 2.222,3.109 0.949,1.522 0,0 m -30.73,-62.393 c 2.199,0.24 4.399,1.015 6.684,2.382 2.351,1.286 4.4,2.776 6.211,4.347 1.876,1.578 3.343,2.98 4.529,4.206 1.058,1.198 1.49,1.923 1.293,1.996 -0.235,0.089 -0.668,0.809 -1.271,2.19 -0.54,1.345 -1.208,2.782 -1.921,4.302 -0.754,1.734 -1.704,3.722 -2.63,5.899 -1.485,-0.206 -2.803,-0.563 -4.009,-1.004 -1.188,-0.506 -2.287,-1.053 -3.473,-1.758 -1.168,-0.676 -2.351,-1.563 -3.625,-2.557 -1.163,-0.979 -2.608,-2.165 -4.25,-3.577 -1.659,-1.413 -2.823,-3.097 -3.578,-5.068 -0.734,-1.995 -1.056,-3.883 -0.926,-5.694 0.022,-1.802 0.732,-3.282 1.918,-4.443 1.078,-1.163 2.847,-1.552 5.048,-1.221 m 60.404,7.851 c 2.979,0.844 5.762,1.479 8.348,1.943 2.653,0.441 4.918,0.775 6.729,0.979 1.876,0.162 3.191,0.219 3.946,0.162 0.775,-0.072 0.775,-0.289 0.128,-0.635 -0.666,-0.377 -2.37,-1.112 -5.023,-2.262 -2.589,-1.154 -5.738,-2.374 -9.253,-3.548 -3.535,-1.253 -7.29,-2.365 -11.236,-3.344 -3.861,-1.003 -7.441,-1.554 -10.739,-1.684 -3.257,-0.109 -6.082,0.207 -8.326,0.865 -2.37,0.71 -4.248,1.487 -5.651,2.394 -1.51,0.859 -2.67,1.617 -3.493,2.262 -0.755,0.638 -1.292,0.907 -1.594,0.767 -3.45,-2.212 -7.484,-4.262 -12.013,-6.2 -4.529,-1.919 -9.425,-3.515 -14.689,-4.819 -2.543,-0.563 -4.96,-0.453 -7.329,0.289 -2.31,0.755 -4.099,2.083 -5.374,3.924 -1.184,1.859 -1.637,4.176 -1.465,7.011 0.281,2.78 1.791,5.932 4.36,9.424 2.586,3.493 5.411,6.351 8.538,8.476 3.019,2.122 5.886,3.819 8.52,5.067 2.609,1.219 4.806,2.08 6.574,2.534 1.747,0.446 2.634,0.812 2.634,1.036 2.047,8.618 4.529,15.989 7.334,22.031 2.735,6.049 5.733,11.051 8.645,14.943 2.977,3.936 5.782,6.816 8.518,8.754 2.763,1.921 5.114,3.099 6.945,3.57 1.899,0.474 3.797,0.367 5.913,-0.344 2.087,-0.699 4.008,-2.08 5.583,-4.205 1.661,-2.08 2.869,-4.883 3.47,-8.378 0.735,-3.473 0.67,-7.765 -0.148,-12.746 C 28.64,-11.42 26.57,-16.595 23.313,-21.816 20.165,-27.085 16.801,-31.929 13.329,-36.338 9.21,-41.46 4.746,-46.433 -0.13,-51.219 c 1.144,-1.38 2.848,-2.479 4.941,-3.323 2.197,-0.778 4.591,-1.355 7.264,-1.649 2.676,-0.289 5.566,-0.289 8.546,0 3.081,0.294 6.058,0.871 9.053,1.649" /></g><g
           transform="translate(781.957,726.6758)"
           id="g52"><path
             id="path54"
             style="fill:#ffffff;fill-opacity:1;fill-rule:nonzero;stroke:none"
             d="m 0,0 c -0.197,-0.237 0.389,-0.237 1.552,0 1.186,0.249 2.588,0.638 4.182,1.154 1.643,0.515 3.345,1.24 5.178,2.167 1.749,0.939 3.363,2.018 4.594,3.172 2.524,2.319 3.989,4.299 4.484,5.939 0.496,1.619 0.068,2.655 -1.425,3.136 -0.754,0.24 -2.025,-0.104 -3.901,-0.956 C 12.766,13.708 10.847,12.561 8.757,11.044 6.684,9.5 4.721,7.775 3.017,5.78 1.315,3.807 0.324,1.876 0,0 m 53.635,-2.792 c 0.84,0.233 1.336,-0.085 1.552,-1.015 0.107,-0.495 0.107,-0.971 0,-1.424 -4.073,-2.437 -7.743,-4.453 -10.892,-5.94 -3.211,-1.522 -6.36,-2.773 -9.421,-3.762 -3.085,-0.991 -6.431,-1.769 -9.988,-2.354 -3.578,-0.568 -7.701,-1.153 -12.507,-1.747 -4.743,-0.568 -8.864,0.088 -12.21,1.931 -3.405,1.854 -5.799,4.315 -7.222,7.312 -1.315,3.062 -1.662,6.438 -0.926,10.167 0.777,3.745 2.887,7.203 6.38,10.464 3.41,3.137 6.536,5.518 9.557,7.095 2.954,1.572 5.585,2.586 8.021,3.04 2.375,0.47 4.354,0.47 6.062,-0.058 1.617,-0.538 2.695,-1.283 3.3,-2.165 1.249,-2.038 1.593,-3.926 0.925,-5.79 C 25.598,11.106 24.305,8.896 22.342,6.493 21.308,5.174 19.649,3.872 17.467,2.534 15.267,1.198 13.005,-0.084 10.61,-1.38 7.958,-2.792 5.067,-4.173 1.938,-5.588 2.307,-6.405 2.89,-7.237 3.515,-8.109 c 0.671,-0.874 1.552,-1.694 2.629,-2.461 0.994,-0.743 2.287,-1.346 3.841,-1.809 1.64,-0.476 3.667,-0.785 6.101,-0.882 4.4,-0.12 8.8,0.309 13.092,1.31 4.315,0.994 8.174,2.148 11.58,3.488 3.453,1.38 6.32,2.556 8.587,3.685 2.262,1.078 3.708,1.746 4.29,1.986" /></g><g
           transform="translate(241.2925,238.0898)"
           id="g56"><path
             id="path58"
             style="fill:#ffffff;fill-opacity:1;fill-rule:nonzero;stroke:none"
             d="m 0,0 c -0.389,0 -1.066,0.078 -2.123,0.185 -1.013,0.129 -2.199,0.216 -3.517,0.289 -1.251,0.035 -2.576,0.035 -3.914,0.035 -1.345,0 -2.501,-0.13 -3.373,-0.509 -0.982,-0.201 -2.342,-0.797 -4.131,-1.701 -1.778,-0.974 -3.719,-2.061 -5.66,-3.278 -1.993,-1.176 -3.839,-2.514 -5.509,-3.937 -1.706,-1.423 -2.902,-2.763 -3.557,-4.011 -0.727,-1.283 -1.265,-2.783 -1.632,-4.539 -0.369,-1.747 -0.324,-3.346 0.13,-4.799 0.368,-1.469 1.25,-2.64 2.61,-3.689 1.359,-0.991 3.344,-1.358 6.037,-1.153 2.641,0.271 5.693,0.745 9.026,1.347 3.418,0.67 6.784,1.391 10.192,2.265 3.373,0.874 6.567,1.811 9.607,2.79 3.006,1.015 5.521,1.921 7.528,2.873 1.831,0.827 3.715,1.606 5.554,2.316 1.895,0.67 3.425,1.209 4.611,1.531 1.243,0.355 1.963,0.475 2.21,0.355 0.251,-0.127 -0.247,-0.516 -1.356,-1.216 -1.283,-0.67 -2.825,-1.544 -4.584,-2.558 -1.706,-0.969 -3.558,-1.96 -5.51,-2.985 -1.919,-1.132 -3.917,-2.125 -5.942,-3.106 -1.993,-0.982 -3.915,-1.756 -5.683,-2.352 -1.734,-0.581 -4.183,-1.345 -7.419,-2.285 -3.191,-0.929 -6.522,-1.759 -10.037,-2.543 -3.461,-0.755 -6.817,-1.296 -9.943,-1.649 -3.179,-0.324 -5.566,-0.324 -7.215,0 -1.605,0.44 -3.114,1.38 -4.547,2.735 -1.34,1.263 -2.247,3 -2.601,5.112 -0.314,2.123 0.087,4.52 1.261,7.28 1.143,2.738 3.378,5.758 6.761,8.983 3.516,3.267 6.892,6.005 10.15,8.117 3.276,2.183 6.305,3.832 9.111,5.092 2.802,1.206 5.184,1.951 7.137,2.188 2.006,0.204 3.409,0.032 4.205,-0.508 C -0.486,5.469 0.434,4.089 0.69,2.439 0.887,0.853 0.69,0 0,0" /></g><g
           transform="translate(273.7617,210.8203)"
           id="g60"><path
             id="path62"
             style="fill:#ffffff;fill-opacity:1;fill-rule:nonzero;stroke:none"
             d="m 0,0 c 3.052,-0.7 5.835,-0.376 8.324,1.069 2.521,1.38 4.615,3.072 6.363,5.023 1.758,1.855 3.084,3.712 4.021,5.468 0.951,1.724 1.347,2.653 1.282,2.783 -1.312,0.906 -2.523,2.093 -3.63,3.58 -1.11,1.487 -2.134,2.857 -3.041,4.312 -1.014,1.617 -2.038,3.333 -3,5.035 L 7.73,26.41 C 6.891,26.055 5.984,25.666 4.928,25.192 3.882,24.684 2.815,24.166 1.747,23.605 0.107,22.669 -1.626,21.114 -3.473,18.892 -5.349,16.675 -6.654,14.308 -7.396,11.819 -8.151,9.327 -8.067,6.903 -7.137,4.648 -6.198,2.395 -3.839,0.842 0,0 m 56.986,11.56 c 2.494,0.797 4.091,1.133 4.811,1.026 0.797,-0.087 0.982,-0.434 0.69,-0.832 C 62.25,11.248 61.669,10.708 60.838,10.072 60.063,9.438 59.273,8.994 58.573,8.725 57.873,8.485 56.924,8.217 55.715,7.905 54.498,7.539 53.075,7.202 51.394,6.903 49.796,6.612 48.05,6.363 46.184,6.136 44.318,5.89 42.407,5.748 40.588,5.748 c -1.885,0 -3.829,0.388 -5.866,0.981 -2.051,0.625 -4.001,1.38 -5.89,2.19 -2.091,0.946 -4.173,1.993 -6.228,3.182 C 21.869,8.822 20.476,5.89 18.386,3.344 16.649,1.111 14.071,-0.862 10.675,-2.621 7.309,-4.345 2.815,-5.219 -2.772,-5.219 c -3.721,0 -6.62,1.059 -8.638,3.139 -2.058,2.08 -3.308,4.571 -3.849,7.536 -0.541,2.89 -0.289,5.932 0.777,9.014 1.057,3.249 2.825,5.931 5.242,8.273 2.469,2.35 4.798,4.064 6.995,5.143 2.213,1.1 4.163,1.885 5.77,2.364 1.974,0.461 3.874,0.72 5.586,0.72 0.097,0.657 0.495,1.295 1.111,1.833 0.68,0.506 1.467,0.843 2.384,1.005 0.924,0.204 1.996,0.094 3.137,-0.337 1.195,-0.389 2.416,-1.206 3.667,-2.501 1.283,-1.338 2.264,-2.793 2.89,-4.398 0.658,-1.619 1.109,-3.238 1.5,-4.875 0.473,-1.853 0.677,-3.74 0.677,-5.628 0,-0.346 0.25,-0.748 0.72,-1.175 0.446,-0.509 1.199,-0.983 2.192,-1.61 0.992,-0.591 2.512,-1.183 4.634,-1.896 4.056,-1.523 7.95,-2.307 11.712,-2.307 3.7,0 8.144,0.864 13.251,2.479" /></g><g
           transform="translate(358.5259,216.5684)"
           id="g64"><path
             id="path66"
             style="fill:#ffffff;fill-opacity:1;fill-rule:nonzero;stroke:none"
             d="m 0,0 c 0.13,0.816 0.1,2.267 -0.236,4.324 -0.282,2.029 -0.646,4.076 -1.044,6.124 -0.409,2.048 -0.875,3.809 -1.361,5.326 -0.527,1.468 -0.929,2.178 -1.155,2.083 -0.247,-0.139 -1.154,-0.66 -2.641,-1.652 -1.518,-1.011 -3.191,-2.037 -5.08,-3.243 -1.874,-1.176 -3.545,-2.274 -5.109,-3.323 -1.607,-1.044 -2.502,-1.714 -2.739,-1.907 -0.333,-0.236 -0.56,-0.949 -0.615,-2.092 -0.065,-1.173 0.165,-2.536 0.615,-4.034 0.421,-1.532 1.296,-3.029 2.427,-4.636 1.153,-1.574 2.89,-2.89 5.067,-3.936 2.243,-1.047 4.021,-1.368 5.511,-0.97 1.455,0.397 2.663,1.11 3.565,2.081 0.964,1.014 1.622,2.126 2.03,3.253 C -0.356,-1.423 -0.084,-0.563 0,0 m 26.236,-2.242 c 2.439,0.819 4.828,1.679 7.183,2.692 2.317,1.004 4.422,1.749 6.201,2.367 1.831,0.601 3.169,0.956 4.14,1.141 0.862,0.159 1.198,-0.064 0.832,-0.787 C 44.253,2.469 43.132,1.564 41.204,0.45 39.286,-0.636 37.019,-1.776 34.54,-2.848 32.079,-3.981 29.395,-5.067 26.605,-6.124 23.81,-7.15 21.309,-7.936 19.054,-8.528 c -2.207,-0.583 -4.821,-1.101 -7.912,-1.565 -3.107,-0.475 -6.301,-0.764 -9.555,-0.764 -3.276,-0.11 -6.447,0 -9.576,0.323 -3.162,0.282 -5.875,0.949 -8.23,2.006 -2.346,1.024 -4.182,2.349 -5.475,3.924 -1.401,1.574 -2.414,3.181 -3.104,4.723 -0.693,1.605 -1.079,2.955 -1.144,4.205 -0.035,1.241 0.107,1.951 0.451,2.191 4.076,2.899 7.464,5.345 10.16,7.234 2.641,1.953 4.863,3.448 6.512,4.626 1.734,1.177 2.945,2.036 3.69,2.642 0.765,0.583 1.215,0.978 1.333,1.175 0.226,0.613 0.269,1.186 0.226,1.692 -0.072,0.508 0,1.373 0.112,2.501 0.182,1.811 0.882,3.303 1.994,4.5 1.108,1.248 2.478,1.723 4.12,1.516 0.805,-0.234 1.313,-0.839 1.465,-1.678 0.213,-0.875 0.213,-1.921 0,-3.162 C 3.969,26.343 3.722,25.095 3.356,23.884 2.989,22.665 2.74,21.706 2.656,21.017 2.524,20.307 2.698,19.205 3.064,17.718 3.505,16.144 4.014,14.523 4.572,12.765 5.209,11.019 5.75,9.307 6.331,7.536 6.914,5.812 7.27,4.228 7.399,2.817 7.691,0.142 7.636,-1.854 7.088,-3.03 6.57,-4.238 6.525,-5.175 6.859,-5.748 c 0.09,-0.191 0.725,-0.376 1.921,-0.376 1.141,0 2.588,0.185 4.345,0.474 1.769,0.313 3.764,0.744 6.039,1.325 2.306,0.596 4.646,1.23 7.072,2.083" /></g><g
           transform="translate(515.4985,224.8096)"
           id="g68"><path
             id="path70"
             style="fill:#ffffff;fill-opacity:1;fill-rule:nonzero;stroke:none"
             d="m 0,0 c 0.581,-0.078 0.901,-0.477 0.901,-1.134 0,-0.637 -0.258,-1.069 -0.752,-1.296 -0.174,-0.149 -1.013,-0.625 -2.374,-1.422 -1.444,-0.81 -3.191,-1.756 -5.349,-2.783 -2.177,-1.056 -4.506,-2.17 -6.996,-3.214 -2.523,-1.111 -4.917,-2.122 -7.084,-2.91 -2.327,-0.797 -4.584,-1.606 -6.709,-2.287 -2.218,-0.699 -4.129,-1.131 -5.975,-1.37 -1.776,-0.236 -3.318,-0.074 -4.634,0.401 -1.293,0.538 -2.134,1.65 -2.578,3.449 -0.117,0.462 -0.237,1.23 -0.237,2.428 0,1.154 0.058,2.512 0.12,4.096 0.075,1.574 0.129,3.259 0.247,5.016 0.097,1.746 0.214,3.395 0.334,5.079 0,1.013 -0.237,2.07 -0.775,3.214 -0.516,1.066 -1.39,1.97 -2.611,2.618 -1.229,0.648 -2.738,0.745 -4.453,0.443 -1.736,-0.378 -3.848,-1.521 -6.317,-3.537 -1.438,-1.283 -3.094,-2.738 -4.833,-4.507 -1.65,-1.804 -3.202,-3.44 -4.656,-5.067 -1.458,-1.685 -2.784,-3.15 -3.927,-4.51 -1.176,-1.435 -1.983,-2.371 -2.499,-2.845 -2.493,-3.278 -4.305,-5.403 -5.306,-6.472 -0.959,-1.054 -2.051,-0.743 -3.249,0.865 -0.441,0.516 -0.344,1.714 0.282,3.719 0.647,1.93 1.347,4.172 2.232,6.602 0.735,2.479 1.39,4.968 1.886,7.631 0.466,2.591 0.349,4.853 -0.366,6.749 -0.666,0.755 -2.081,1.178 -4.109,1.178 -2.038,0 -4.509,-1.024 -7.441,-3.136 -2.317,-1.769 -4.602,-3.69 -6.801,-5.666 -2.19,-2.048 -4.293,-4.008 -6.192,-5.961 -1.93,-1.889 -3.602,-3.729 -5.184,-5.467 -1.499,-1.606 -2.783,-2.986 -3.784,-3.893 -2.257,-1.756 -3.981,-3.171 -5.199,-4.16 -1.218,-1.059 -2.459,-1.565 -3.755,-1.425 -0.677,0 -1.333,0.206 -1.931,0.602 -0.535,0.399 -1.013,0.985 -1.196,1.762 -0.246,0.72 -0.227,1.701 0.075,2.79 0.294,1.111 0.974,2.449 1.988,3.937 1.196,1.409 2.509,3.46 3.912,6.135 1.5,2.696 2.915,5.291 4.345,8.077 1.36,2.633 2.643,5.025 3.712,7.127 1.108,2.058 1.776,3.332 2.057,3.805 0.12,0.269 0.658,0.615 1.65,1.059 0.971,0.464 1.953,0.83 2.925,1.002 1.001,0.132 1.851,0.132 2.576,-0.143 0.712,-0.202 0.873,-0.859 0.55,-1.918 -0.389,-1.002 -1.006,-2.521 -1.888,-4.527 -0.853,-1.963 -1.734,-3.958 -2.619,-5.932 -0.862,-1.963 -1.587,-3.722 -2.202,-5.154 -0.581,-1.443 -0.723,-2.233 -0.496,-2.233 0.129,0 0.885,0.606 2.31,1.782 1.38,1.174 3.104,2.663 5.109,4.462 2.06,1.781 4.323,3.732 6.761,5.782 2.447,2.015 4.776,3.976 7.061,5.767 2.277,1.769 4.283,3.322 6.022,4.445 1.744,1.174 3.039,1.776 3.869,1.776 1.325,0 2.523,-0.395 3.398,-1.173 0.849,-0.745 1.542,-1.697 2.077,-2.802 0.518,-1.072 0.885,-2.291 1.059,-3.67 0.215,-1.313 0.215,-2.554 0.087,-3.568 -0.087,-1.37 -0.314,-3.007 -0.628,-4.714 -0.268,-1.758 -0.44,-3.642 -0.567,-5.607 2.197,2.601 4.506,5.027 6.975,7.292 2.444,2.254 4.789,4.269 6.988,5.996 2.198,1.757 4.236,3.256 6.109,4.539 1.868,1.315 3.381,2.285 4.574,2.995 1.104,0.712 2.375,0.81 3.702,0.444 1.196,-0.444 2.392,-1.154 3.351,-2.178 0.991,-1.059 1.782,-2.482 2.362,-4.12 0.573,-1.727 0.812,-3.569 0.692,-5.509 -0.119,-1.629 -0.316,-3.56 -0.617,-5.813 -0.267,-2.179 -0.529,-4.301 -0.655,-6.32 -0.22,-2.045 -0.22,-3.914 -0.153,-5.533 0.153,-1.65 0.636,-2.628 1.425,-2.952 0.461,-0.24 1.518,-0.269 3.149,-0.107 1.637,0.161 3.481,0.538 5.606,1.043 2.08,0.544 4.258,1.192 6.48,2.016 2.197,0.812 4.247,1.697 6.091,2.621 3.483,1.823 6.201,3.418 8.232,4.639 C -1.836,-0.456 -0.583,0.114 0,0" /></g><g
           transform="translate(516.7266,224.8096)"
           id="g72"><path
             id="path74"
             style="fill:#ffffff;fill-opacity:1;fill-rule:nonzero;stroke:none"
             d="m 0,0 c -0.107,-0.229 0.389,-0.229 1.552,0 1.164,0.224 2.589,0.635 4.225,1.128 1.64,0.52 3.367,1.241 5.135,2.18 1.811,0.947 3.363,2.005 4.636,3.139 2.544,2.36 3.947,4.323 4.465,5.974 0.538,1.649 0,2.663 -1.488,3.137 -0.734,0.224 -2.005,-0.085 -3.863,-0.95 C 12.811,13.754 10.87,12.516 8.735,11.041 6.642,9.477 4.789,7.772 3.042,5.787 1.38,3.784 0.344,1.896 0,0 m 53.658,-2.783 c 0.882,0.204 1.38,-0.162 1.592,-1.069 0.107,-0.431 0.107,-0.949 0,-1.413 -4.138,-2.426 -7.721,-4.399 -10.954,-5.931 -3.172,-1.52 -6.341,-2.793 -9.422,-3.74 -3.129,-0.971 -6.451,-1.792 -9.968,-2.309 -3.578,-0.625 -7.696,-1.248 -12.442,-1.799 -4.875,-0.596 -8.906,0.072 -12.247,1.884 -3.408,1.931 -5.847,4.347 -7.205,7.376 -1.34,3.03 -1.684,6.437 -0.951,10.138 0.757,3.699 2.895,7.244 6.387,10.502 3.364,3.095 6.532,5.455 9.487,7.074 2.977,1.551 5.628,2.565 8.044,2.997 2.437,0.52 4.422,0.52 6.06,-0.066 1.641,-0.548 2.697,-1.25 3.3,-2.157 1.358,-1.982 1.575,-3.901 0.947,-5.79 C 25.663,11.104 24.37,8.956 22.362,6.447 21.328,5.194 19.669,3.889 17.467,2.553 15.267,1.193 13.005,-0.078 10.675,-1.403 8.022,-2.783 5.067,-4.186 1.963,-5.608 2.417,-6.41 2.933,-7.26 3.58,-8.122 c 0.668,-0.862 1.487,-1.727 2.544,-2.489 1.056,-0.725 2.374,-1.36 3.904,-1.793 1.617,-0.474 3.577,-0.743 6.058,-0.905 4.423,-0.107 8.758,0.354 13.115,1.338 4.292,1.011 8.216,2.122 11.599,3.505 3.453,1.358 6.321,2.533 8.585,3.665 2.285,1.111 3.732,1.746 4.273,2.018" /></g><g
           transform="translate(606.8076,268.8359)"
           id="g76"><path
             id="path78"
             style="fill:#ffffff;fill-opacity:1;fill-rule:nonzero;stroke:none"
             d="m 0,0 c -0.907,0.408 -2.718,-0.496 -5.67,-2.579 -3.064,-2.093 -6.558,-6.009 -10.656,-11.722 h 11.408 c 1.144,2.447 2.158,4.679 2.977,6.807 0.668,1.766 1.273,3.395 1.702,4.915 C 0.237,-1.104 0.304,-0.197 0,0 m -19.649,-18.853 c -2.068,-2.692 -3.924,-5.218 -5.538,-7.685 -1.428,-2.122 -2.698,-4.305 -3.819,-6.566 -1.251,-2.276 -1.747,-4.207 -1.662,-5.694 0.154,-1.261 1.684,-0.431 4.551,2.48 0.882,0.7 2.2,2.07 4.12,4.095 1.897,2.018 3.858,4.098 5.843,6.191 2.375,2.469 4.853,5.152 7.547,8.045 z M 18.46,-48.74 c 1.079,0.59 2.285,1.163 3.561,1.768 1.38,0.581 2.414,0.948 3.191,1.057 0.732,0.052 0.992,-0.109 0.774,-0.648 -0.236,-0.541 -1.337,-1.649 -3.318,-3.396 -2.072,-1.629 -5.221,-3.301 -9.317,-5.069 -4.141,-1.757 -8.692,-3.299 -13.59,-4.637 -4.893,-1.36 -9.791,-2.349 -14.709,-2.986 -4.828,-0.659 -9.013,-0.723 -12.332,-0.257 -3.515,0.472 -6.127,1.721 -7.723,3.836 -1.639,2.126 -2.783,4.434 -3.341,6.924 -0.625,2.478 -0.777,4.937 -0.518,7.417 0.172,2.438 0.451,4.207 0.67,5.228 0.234,1.06 0.902,2.743 1.916,4.995 1.059,2.285 2.2,4.614 3.368,6.899 1.27,2.698 2.781,5.523 4.355,8.607 -3.214,-0.246 -6.061,-0.548 -8.737,-0.864 -2.327,-0.235 -4.529,-0.506 -6.617,-0.775 -2.093,-0.171 -3.473,-0.289 -4.098,-0.289 -0.648,0 -0.91,0.289 -0.8,0.829 0.087,0.614 0.304,1.248 0.778,2.026 0.408,0.765 0.859,1.51 1.422,2.18 0.496,0.707 0.949,1.122 1.079,1.249 0.239,0.119 1.467,0.164 3.537,0.164 2.091,0 4.293,-0.045 6.6,-0.164 2.825,-0.127 5.907,-0.27 9.272,-0.355 0.972,1.403 2.156,2.985 3.473,4.712 1.293,1.531 2.91,3.224 4.808,5.177 1.964,1.895 4.338,4.008 7.29,6.375 3.256,2.65 5.885,4.439 7.957,5.226 C -0.518,7.276 0.952,7.591 2.2,7.352 3.236,7.117 3.924,6.532 4.27,5.625 4.659,4.679 4.898,3.816 4.898,3.029 4.898,2.015 4.552,0.603 3.924,-1.273 3.386,-3.217 2.74,-5.147 2.093,-7.173 1.186,-9.46 0.304,-12.016 -0.732,-14.646 h 8.709 13.438 c 1.64,0 2.802,-0.127 3.45,-0.355 0.713,-0.249 1.121,-0.505 1.251,-0.894 0.023,-0.366 -0.172,-0.67 -0.56,-0.992 -0.409,-0.379 -0.907,-0.692 -1.488,-0.928 -0.625,-0.292 -2.329,-0.529 -5.284,-0.606 -3.064,-0.104 -6.168,-0.03 -9.574,0.077 -4.016,0.097 -8.391,0.289 -13.308,0.529 -0.474,-0.71 -1.101,-1.621 -1.919,-2.826 -0.667,-0.904 -1.596,-2.047 -2.717,-3.43 -1.077,-1.41 -2.352,-3.03 -3.882,-4.918 -1.662,-1.854 -3.43,-3.772 -5.566,-5.693 -2.003,-1.883 -4.03,-3.677 -5.932,-5.292 -2.219,-1.972 -4.589,-3.861 -7.094,-5.618 -0.43,-2.125 -0.367,-4.043 0.174,-5.727 0.563,-1.542 1.791,-2.987 3.472,-4.302 1.77,-1.36 4.575,-2.233 8.434,-2.567 3.839,-0.366 7.785,-0.139 11.731,0.648 3.966,0.743 7.701,1.704 11.174,2.791 3.468,1.071 6.555,2.212 9.161,3.43 2.633,1.121 4.444,1.996 5.522,2.579" /></g><g
           transform="translate(655.333,266.0947)"
           id="g80"><path
             id="path82"
             style="fill:#ffffff;fill-opacity:1;fill-rule:nonzero;stroke:none"
             d="m 0,0 c -0.974,0.516 -1.402,1.293 -1.402,2.245 -0.22,1.089 -0.152,2.078 0.169,3.139 0.391,1.368 0.845,2.553 1.492,3.49 0.28,0.605 0.536,1.144 0.882,1.694 0.279,0.496 0.583,1.036 0.927,1.65 0.625,0.904 1.402,1.734 2.265,2.449 0.667,0.58 1.23,0.839 1.811,0.839 0.301,-0.094 0.668,-0.194 1.034,-0.344 0.346,-0.089 0.842,-0.271 1.338,-0.495 1.013,-0.608 1.749,-1.198 2.374,-1.953 0.839,-0.7 1.444,-1.445 1.487,-2.265 C 12.831,9.415 12.701,8.638 12.228,8.175 11.988,7.831 11.645,7.42 11.191,6.986 10.715,6.49 10.265,5.975 9.639,5.384 9.014,4.756 8.453,4.273 7.741,3.85 7.178,3.344 6.555,2.88 6.014,2.437 4.29,1.381 3.146,0.723 2.307,0.496 1.077,-0.246 0.386,-0.355 0,0 m -12.726,-22.74 c 1.984,-1.759 3.085,-3.072 3.234,-3.884 0.431,-1.142 0.389,-2.317 -0.149,-3.458 -0.386,-1.069 -1.273,-2.523 -2.591,-4.412 -1.27,-1.597 -2.693,-3.916 -4.397,-6.946 -1.615,-3.062 -2.285,-5.55 -1.896,-7.537 0.388,-1.855 1.313,-3.31 2.975,-4.335 0.839,-0.625 1.639,-1.055 2.652,-1.457 0.927,-0.343 2.026,-0.505 3.257,-0.505 3.081,-0.108 5.456,0 7.03,0.324 1.637,0.356 3.105,0.787 4.335,1.261 1.338,0.377 2.609,0.841 3.946,1.476 1.316,0.649 2.608,1.264 3.969,1.854 1.251,0.563 2.589,1.22 3.924,1.965 1.358,0.659 2.437,1.296 3.431,1.844 1.225,0.982 2.394,1.54 3.45,1.737 1.078,0.311 1.726,0.311 2.113,0.226 0.538,-0.249 0.732,-0.593 0.518,-1.046 -0.195,-0.475 -0.389,-0.79 -0.518,-0.917 -0.26,-0.239 -0.603,-0.508 -1.189,-0.819 -0.622,-0.366 -1.402,-0.832 -2.502,-1.447 -1.055,-0.569 -2.239,-1.142 -3.51,-1.703 -1.275,-0.615 -2.525,-1.25 -4.015,-1.962 -1.508,-0.548 -3.063,-1.208 -4.529,-2.029 -1.485,-0.764 -3.083,-1.465 -4.744,-2.167 -1.682,-0.677 -3.172,-1.261 -4.464,-1.768 -1.206,-0.429 -2.415,-0.827 -3.623,-1.099 -1.273,-0.314 -2.501,-0.432 -3.968,-0.517 -1.316,-0.077 -2.977,-0.106 -4.918,-0.106 -1.293,0 -2.654,0.214 -4.009,0.623 -1.273,0.389 -2.483,0.906 -3.625,1.489 -2.304,1.131 -3.707,2.512 -4.247,4.011 -0.324,1.261 -0.324,2.975 0,5.067 0.281,1.057 0.54,2.125 0.884,3.224 0.215,1.121 0.67,2.298 1.248,3.603 0.972,2.536 2.008,4.918 3.149,7.147 1.059,2.223 2.332,4.348 3.665,6.493 0.628,0.906 1.126,1.788 1.642,2.501 0.583,0.765 1.101,1.446 1.487,2.048 0.8,1.059 1.464,1.425 1.985,1.221" /></g><g
           transform="translate(713.8838,238.0898)"
           id="g84"><path
             id="path86"
             style="fill:#ffffff;fill-opacity:1;fill-rule:nonzero;stroke:none"
             d="m 0,0 c -0.304,0 -0.991,0.078 -2.112,0.185 -1.037,0.129 -2.136,0.216 -3.518,0.289 -1.273,0.035 -2.546,0.035 -3.86,0.035 -1.36,0 -2.481,-0.13 -3.427,-0.509 -0.974,-0.201 -2.354,-0.797 -4.124,-1.701 -1.788,-0.974 -3.664,-2.061 -5.669,-3.278 -2.003,-1.176 -3.817,-2.514 -5.499,-3.937 -1.724,-1.423 -2.89,-2.763 -3.578,-4.011 -0.776,-1.283 -1.233,-2.783 -1.621,-4.539 -0.322,-1.747 -0.322,-3.346 0.087,-4.799 0.408,-1.469 1.296,-2.64 2.634,-3.689 1.379,-0.991 3.359,-1.358 6.058,-1.153 2.676,0.271 5.671,0.745 9.081,1.347 3.425,0.67 6.749,1.391 10.069,2.265 3.474,0.874 6.685,1.811 9.64,2.79 3.084,1.015 5.563,1.921 7.613,2.873 1.747,0.827 3.687,1.606 5.498,2.316 1.879,0.67 3.431,1.209 4.614,1.531 1.296,0.355 1.989,0.475 2.267,0.355 0.172,-0.127 -0.278,-0.516 -1.422,-1.216 -1.273,-0.67 -2.825,-1.544 -4.552,-2.558 -1.726,-0.969 -3.599,-1.96 -5.475,-2.985 -1.986,-1.132 -3.908,-2.125 -5.997,-3.106 -2.028,-0.982 -3.927,-1.756 -5.67,-2.352 -1.769,-0.581 -4.186,-1.345 -7.444,-2.285 -3.192,-0.929 -6.51,-1.759 -9.941,-2.543 -3.515,-0.755 -6.836,-1.296 -10.049,-1.649 -3.15,-0.324 -5.521,-0.324 -7.159,0 -1.599,0.44 -3.151,1.38 -4.551,2.735 -1.403,1.263 -2.225,3 -2.633,5.112 -0.389,2.123 0.09,4.52 1.23,7.28 1.206,2.738 3.431,5.758 6.837,8.983 3.473,3.267 6.881,6.005 10.179,8.117 3.213,2.183 6.256,3.832 9.101,5.092 2.738,1.206 5.174,1.951 7.117,2.188 2.028,0.204 3.451,0.032 4.164,-0.508 C -0.433,5.469 0.474,4.089 0.69,2.439 0.927,0.853 0.69,0 0,0" /></g><g
           transform="translate(757.0586,216.5684)"
           id="g88"><path
             id="path90"
             style="fill:#ffffff;fill-opacity:1;fill-rule:nonzero;stroke:none"
             d="m 0,0 c 0.109,0.816 0,2.267 -0.194,4.324 -0.345,2.029 -0.626,4.076 -1.057,6.124 -0.538,2.048 -0.947,3.809 -1.465,5.326 -0.543,1.468 -0.884,2.178 -1.081,2.083 -0.299,-0.139 -1.161,-0.66 -2.654,-1.652 -1.571,-1.011 -3.211,-2.037 -5.067,-3.243 -1.853,-1.176 -3.58,-2.274 -5.176,-3.323 -1.553,-1.044 -2.477,-1.714 -2.694,-1.907 -0.388,-0.236 -0.605,-0.949 -0.605,-2.092 -0.062,-1.173 0.085,-2.536 0.605,-4.034 0.474,-1.532 1.248,-3.029 2.437,-4.636 1.143,-1.574 2.868,-2.89 5.067,-3.936 2.222,-1.047 4.121,-1.368 5.501,-0.97 1.465,0.397 2.631,1.11 3.56,2.081 0.945,1.014 1.662,2.126 2.048,3.253 C -0.386,-1.423 -0.13,-0.563 0,0 m 26.204,-2.242 c 2.478,0.819 4.853,1.679 7.224,2.692 2.242,1.004 4.377,1.749 6.189,2.367 1.746,0.601 3.171,0.956 4.118,1.141 0.929,0.159 1.21,-0.064 0.864,-0.787 C 44.213,2.469 43.112,1.564 41.191,0.45 39.273,-0.636 37.028,-1.776 34.527,-2.848 31.981,-3.981 29.353,-5.067 26.57,-6.124 23.787,-7.15 21.243,-7.936 19.043,-8.528 c -2.222,-0.583 -4.895,-1.101 -7.915,-1.565 -3.149,-0.475 -6.277,-0.764 -9.511,-0.764 -3.321,-0.11 -6.49,0 -9.639,0.323 -3.169,0.282 -5.932,0.949 -8.197,2.006 -2.371,1.024 -4.225,2.349 -5.543,3.924 -1.335,1.574 -2.346,3.181 -3.059,4.723 -0.713,1.605 -1.081,2.955 -1.146,4.205 -0.042,1.241 0.065,1.951 0.433,2.191 4.118,2.899 7.484,5.345 10.178,7.234 2.697,1.953 4.898,3.448 6.559,4.626 1.682,1.177 2.887,2.036 3.727,2.642 0.712,0.583 1.104,0.978 1.273,1.175 0.197,0.613 0.281,1.186 0.197,1.692 -0.025,0.508 0,1.373 0.129,2.501 0.212,1.811 0.882,3.303 2.006,4.5 1.079,1.248 2.459,1.723 4.118,1.516 0.82,-0.234 1.231,-0.839 1.465,-1.678 0.154,-0.875 0.154,-1.921 0,-3.162 C 3.884,26.343 3.687,25.095 3.343,23.884 2.912,22.665 2.763,21.706 2.653,21.017 2.458,20.307 2.695,19.205 3.082,17.718 3.473,16.144 3.884,14.523 4.551,12.765 5.132,11.019 5.695,9.307 6.32,7.536 6.878,5.812 7.29,4.228 7.334,2.817 7.681,0.142 7.591,-1.854 7.118,-3.03 6.557,-4.238 6.49,-5.175 6.816,-5.748 c 0.132,-0.191 0.775,-0.376 1.938,-0.376 1.231,0 2.591,0.185 4.357,0.474 1.769,0.313 3.71,0.744 6.062,1.325 2.262,0.596 4.614,1.23 7.031,2.083" /></g><g
           transform="translate(170.6108,311.5811)"
           id="g92"><path
             id="path94"
             style="fill:#ffffff;fill-opacity:1;fill-rule:nonzero;stroke:none"
             d="m 0,0 h -3.171 c -2.611,0 -4.725,2.123 -4.725,4.709 0,2.633 2.114,4.788 4.725,4.788 H 0 C 2.608,9.497 4.756,7.342 4.756,4.709 4.756,2.123 2.608,0 0,0 m 31.627,0 h -3.161 c -2.567,0 -4.757,2.123 -4.757,4.709 0,2.633 2.19,4.788 4.757,4.788 h 3.161 C 34.235,9.497 36.4,7.342 36.4,4.709 36.4,2.123 34.235,0 31.627,0 m 31.615,0 h -3.129 c -2.641,0 -4.799,2.123 -4.799,4.709 0,2.633 2.158,4.788 4.799,4.788 h 3.129 c 2.643,0 4.766,-2.155 4.766,-4.788 C 68.008,2.123 65.885,0 63.242,0 m 31.627,0 h -3.162 c -2.608,0 -4.71,2.123 -4.71,4.709 0,2.633 2.102,4.788 4.71,4.788 h 3.162 c 2.641,0 4.743,-2.155 4.743,-4.788 C 99.612,2.123 97.51,0 94.869,0 m 31.627,0 h -3.149 c -2.621,0 -4.768,2.123 -4.768,4.709 0,2.633 2.147,4.788 4.768,4.788 h 3.149 c 2.641,0 4.754,-2.155 4.754,-4.788 C 131.25,2.123 129.137,0 126.496,0 m 31.647,0 h -3.171 c -2.641,0 -4.776,2.123 -4.776,4.709 0,2.633 2.135,4.788 4.776,4.788 h 3.171 c 2.644,0 4.714,-2.155 4.714,-4.788 0,-2.586 -2.07,-4.709 -4.714,-4.709 m 31.585,0 h -3.162 c -2.628,0 -4.713,2.123 -4.713,4.709 0,2.633 2.085,4.788 4.713,4.788 h 3.162 c 2.608,0 4.766,-2.155 4.766,-4.788 C 194.494,2.123 192.336,0 189.728,0 m 31.637,0 h -3.159 c -2.611,0 -4.768,2.123 -4.768,4.709 0,2.633 2.157,4.788 4.768,4.788 h 3.159 c 2.618,0 4.723,-2.155 4.723,-4.788 C 226.088,2.123 223.983,0 221.365,0 m 31.595,0 h -3.119 c -2.606,0 -4.741,2.123 -4.741,4.709 0,2.633 2.135,4.788 4.741,4.788 h 3.119 c 2.673,0 4.798,-2.155 4.798,-4.788 C 257.758,2.123 255.633,0 252.96,0 m 31.657,0 h -3.157 c -2.64,0 -4.768,2.123 -4.768,4.709 0,2.633 2.128,4.788 4.768,4.788 h 3.157 c 2.633,0 4.714,-2.155 4.714,-4.788 C 289.331,2.123 287.25,0 284.617,0 m 31.597,0 h -3.107 c -2.598,0 -4.797,2.123 -4.797,4.709 0,2.633 2.199,4.788 4.797,4.788 h 3.107 c 2.639,0 4.764,-2.155 4.764,-4.788 C 320.978,2.123 318.853,0 316.214,0 m 31.712,0 h -3.214 c -2.63,0 -4.711,2.123 -4.711,4.709 0,2.633 2.081,4.788 4.711,4.788 h 3.214 c 2.501,0 4.72,-2.155 4.72,-4.788 0,-2.586 -2.219,-4.709 -4.72,-4.709 m 31.552,0 h -3.171 c -2.566,0 -4.702,2.123 -4.702,4.709 0,2.633 2.136,4.788 4.702,4.788 h 3.171 c 2.676,0 4.789,-2.155 4.789,-4.788 C 384.267,2.123 382.154,0 379.478,0 m 31.68,0 h -3.146 c -2.699,0 -4.811,2.123 -4.811,4.709 0,2.633 2.112,4.788 4.811,4.788 h 3.146 c 2.566,0 4.743,-2.155 4.743,-4.788 C 415.901,2.123 413.724,0 411.158,0 m 31.595,0 h -3.171 c -2.676,0 -4.679,2.123 -4.679,4.709 0,2.633 2.003,4.788 4.679,4.788 h 3.171 c 2.651,0 4.741,-2.155 4.741,-4.788 0,-2.586 -2.09,-4.709 -4.741,-4.709 m 31.615,0 h -3.149 c -2.631,0 -4.721,2.123 -4.721,4.709 0,2.633 2.09,4.788 4.721,4.788 h 3.149 c 2.673,0 4.745,-2.155 4.745,-4.788 C 479.113,2.123 477.041,0 474.368,0 m 31.639,0 h -3.171 c -2.629,0 -4.769,2.123 -4.769,4.709 0,2.633 2.14,4.788 4.769,4.788 h 3.171 c 2.651,0 4.699,-2.155 4.699,-4.788 C 510.706,2.123 508.658,0 506.007,0 m 31.655,0 h -3.192 c -2.65,0 -4.763,2.123 -4.763,4.709 0,2.633 2.113,4.788 4.763,4.788 h 3.192 c 2.524,0 4.683,-2.155 4.683,-4.788 C 542.345,2.123 540.186,0 537.662,0 m 31.535,0 h -3.107 c -2.611,0 -4.768,2.123 -4.768,4.709 0,2.633 2.157,4.788 4.768,4.788 h 3.107 c 2.651,0 4.827,-2.155 4.827,-4.788 C 574.024,2.123 571.848,0 569.197,0 m 31.699,0 h -3.191 c -2.589,0 -4.744,2.123 -4.744,4.709 0,2.633 2.155,4.788 4.744,4.788 h 3.191 c 2.563,0 4.746,-2.155 4.746,-4.788 C 605.642,2.123 603.459,0 600.896,0 m 31.617,0 h -3.171 c -2.631,0 -4.744,2.123 -4.744,4.709 0,2.633 2.113,4.788 4.744,4.788 h 3.171 c 2.567,0 4.721,-2.155 4.721,-4.788 C 637.234,2.123 635.08,0 632.513,0 m 31.615,0 h -3.191 c -2.586,0 -4.679,2.123 -4.679,4.709 0,2.633 2.093,4.788 4.679,4.788 h 3.191 c 2.588,0 4.789,-2.155 4.789,-4.788 C 668.917,2.123 666.716,0 664.128,0" /></g><g
           transform="translate(170.6108,664.8364)"
           id="g96"><path
             id="path98"
             style="fill:#ffffff;fill-opacity:1;fill-rule:nonzero;stroke:none"
             d="m 0,0 h -3.171 c -2.611,0 -4.725,2.09 -4.725,4.711 0,2.643 2.114,4.766 4.725,4.766 H 0 C 2.608,9.477 4.756,7.354 4.756,4.711 4.756,2.09 2.608,0 0,0 m 31.627,0 h -3.161 c -2.567,0 -4.757,2.09 -4.757,4.711 0,2.643 2.19,4.766 4.757,4.766 h 3.161 C 34.235,9.477 36.4,7.354 36.4,4.711 36.4,2.09 34.235,0 31.627,0 m 31.615,0 h -3.129 c -2.641,0 -4.799,2.09 -4.799,4.711 0,2.643 2.158,4.766 4.799,4.766 h 3.129 c 2.643,0 4.766,-2.123 4.766,-4.766 C 68.008,2.09 65.885,0 63.242,0 m 31.627,0 h -3.162 c -2.608,0 -4.71,2.09 -4.71,4.711 0,2.643 2.102,4.766 4.71,4.766 h 3.162 c 2.641,0 4.743,-2.123 4.743,-4.766 C 99.612,2.09 97.51,0 94.869,0 m 31.627,0 h -3.149 c -2.621,0 -4.768,2.09 -4.768,4.711 0,2.643 2.147,4.766 4.768,4.766 h 3.149 c 2.641,0 4.754,-2.123 4.754,-4.766 C 131.25,2.09 129.137,0 126.496,0 m 31.647,0 h -3.171 c -2.641,0 -4.776,2.09 -4.776,4.711 0,2.643 2.135,4.766 4.776,4.766 h 3.171 c 2.644,0 4.714,-2.123 4.714,-4.766 C 162.857,2.09 160.787,0 158.143,0 m 31.585,0 h -3.162 c -2.628,0 -4.713,2.09 -4.713,4.711 0,2.643 2.085,4.766 4.713,4.766 h 3.162 c 2.608,0 4.766,-2.123 4.766,-4.766 C 194.494,2.09 192.336,0 189.728,0 m 31.637,0 h -3.159 c -2.611,0 -4.768,2.09 -4.768,4.711 0,2.643 2.157,4.766 4.768,4.766 h 3.159 c 2.618,0 4.723,-2.123 4.723,-4.766 C 226.088,2.09 223.983,0 221.365,0 m 31.595,0 h -3.119 c -2.606,0 -4.741,2.09 -4.741,4.711 0,2.643 2.135,4.766 4.741,4.766 h 3.119 c 2.673,0 4.798,-2.123 4.798,-4.766 C 257.758,2.09 255.633,0 252.96,0 m 31.657,0 h -3.157 c -2.64,0 -4.768,2.09 -4.768,4.711 0,2.643 2.128,4.766 4.768,4.766 h 3.157 c 2.633,0 4.714,-2.123 4.714,-4.766 C 289.331,2.09 287.25,0 284.617,0 m 31.597,0 h -3.107 c -2.598,0 -4.797,2.09 -4.797,4.711 0,2.643 2.199,4.766 4.797,4.766 h 3.107 c 2.639,0 4.764,-2.123 4.764,-4.766 C 320.978,2.09 318.853,0 316.214,0 m 31.712,0 h -3.214 c -2.63,0 -4.711,2.09 -4.711,4.711 0,2.643 2.081,4.766 4.711,4.766 h 3.214 c 2.501,0 4.72,-2.123 4.72,-4.766 C 352.646,2.09 350.427,0 347.926,0 m 31.552,0 h -3.171 c -2.566,0 -4.702,2.09 -4.702,4.711 0,2.643 2.136,4.766 4.702,4.766 h 3.171 c 2.676,0 4.789,-2.123 4.789,-4.766 C 384.267,2.09 382.154,0 379.478,0 m 31.68,0 h -3.146 c -2.699,0 -4.811,2.09 -4.811,4.711 0,2.643 2.112,4.766 4.811,4.766 h 3.146 c 2.566,0 4.743,-2.123 4.743,-4.766 C 415.901,2.09 413.724,0 411.158,0 m 31.595,0 h -3.171 c -2.676,0 -4.679,2.09 -4.679,4.711 0,2.643 2.003,4.766 4.679,4.766 h 3.171 c 2.651,0 4.741,-2.123 4.741,-4.766 C 447.494,2.09 445.404,0 442.753,0 m 31.615,0 h -3.149 c -2.631,0 -4.721,2.09 -4.721,4.711 0,2.643 2.09,4.766 4.721,4.766 h 3.149 c 2.673,0 4.745,-2.123 4.745,-4.766 C 479.113,2.09 477.041,0 474.368,0 m 31.639,0 h -3.171 c -2.629,0 -4.769,2.09 -4.769,4.711 0,2.643 2.14,4.766 4.769,4.766 h 3.171 c 2.651,0 4.699,-2.123 4.699,-4.766 C 510.706,2.09 508.658,0 506.007,0 m 31.655,0 h -3.192 c -2.65,0 -4.763,2.09 -4.763,4.711 0,2.643 2.113,4.766 4.763,4.766 h 3.192 c 2.524,0 4.683,-2.123 4.683,-4.766 C 542.345,2.09 540.186,0 537.662,0 m 31.535,0 h -3.107 c -2.611,0 -4.768,2.09 -4.768,4.711 0,2.643 2.157,4.766 4.768,4.766 h 3.107 c 2.651,0 4.827,-2.123 4.827,-4.766 C 574.024,2.09 571.848,0 569.197,0 m 31.699,0 h -3.191 c -2.589,0 -4.744,2.09 -4.744,4.711 0,2.643 2.155,4.766 4.744,4.766 h 3.191 c 2.563,0 4.746,-2.123 4.746,-4.766 C 605.642,2.09 603.459,0 600.896,0 m 31.617,0 h -3.171 c -2.631,0 -4.744,2.09 -4.744,4.711 0,2.643 2.113,4.766 4.744,4.766 h 3.171 c 2.567,0 4.721,-2.123 4.721,-4.766 C 637.234,2.09 635.08,0 632.513,0 m 31.615,0 h -3.191 c -2.586,0 -4.679,2.09 -4.679,4.711 0,2.643 2.093,4.766 4.679,4.766 h 3.191 c 2.588,0 4.789,-2.123 4.789,-4.766 C 668.917,2.09 666.716,0 664.128,0" /></g><g
           transform="translate(157.4209,373.7842)"
           id="g100"><path
             id="path102"
             style="fill:#ffffff;fill-opacity:1;fill-rule:nonzero;stroke:none"
             d="m 0,0 v 246.737 h 36.061 l 16.364,-132.945 3.992,-43.78 3.717,43.473 16.342,133.252 h 37 V 0 H 91.273 V 193.074 L 88.18,163.462 66.597,0 H 46.237 L 24.661,165.625 22.187,192.75 V 0 Z" /></g><g
           transform="translate(343.6641,581.6543)"
           id="g104"><path
             id="path106"
             style="fill:#ffffff;fill-opacity:1;fill-rule:nonzero;stroke:none"
             d="m 0,0 c 0,9.461 -4.114,14.205 -12.332,14.205 -8.207,0 -12.34,-4.744 -12.34,-14.205 v -169.029 c 0,-9.454 4.133,-14.137 12.34,-14.137 8.218,0 12.332,4.683 12.332,14.137 z m 24.687,-153.596 c 0,-36.184 -12.331,-54.274 -37.019,-54.274 -24.661,0 -37.001,18.09 -37.001,54.274 v 138.172 c 0,36.184 12.34,54.291 37.001,54.291 24.688,0 37.019,-18.107 37.019,-54.291 z" /></g><g
           transform="translate(397.0278,620.5215)"
           id="g108"><path
             id="path110"
             style="fill:#ffffff;fill-opacity:1;fill-rule:nonzero;stroke:none"
             d="m 0,0 h 24.672 v -192.463 c 0,-36.184 -12.316,-54.274 -37,-54.274 h -6.799 v 24.704 h 6.799 c 8.204,0 12.328,4.682 12.328,14.137 z" /></g><g
           transform="translate(492.9546,581.6543)"
           id="g112"><path
             id="path114"
             style="fill:#ffffff;fill-opacity:1;fill-rule:nonzero;stroke:none"
             d="M 0,0 C 0,9.461 -4.13,14.205 -12.364,14.205 -20.57,14.205 -24.651,9.461 -24.651,0 v -169.029 c 0,-9.454 4.081,-14.137 12.287,-14.137 8.234,0 12.364,4.683 12.364,14.137 z m 24.663,-153.596 c 0,-36.184 -12.322,-54.274 -37.027,-54.274 -24.669,0 -37,18.09 -37,54.274 v 138.172 c 0,36.184 12.331,54.291 37,54.291 24.705,0 37.027,-18.107 37.027,-54.291 z" /></g><g
           transform="translate(628.3242,581.6543)"
           id="g116"><path
             id="path118"
             style="fill:#ffffff;fill-opacity:1;fill-rule:nonzero;stroke:none"
             d="M 0,0 C 0,9.461 -3.497,14.205 -10.492,14.205 -17.486,14.205 -20.934,9.461 -20.934,0 v -33.61 c 0,-10.689 7.539,-26.132 22.783,-46.241 15.209,-20.182 22.831,-37.552 22.831,-52.162 v -21.583 c 0,-36.184 -11.697,-54.274 -35.172,-54.274 -23.442,0 -35.152,18.09 -35.152,54.274 v 30.552 h 24.71 v -45.985 c 0,-9.454 3.448,-14.137 10.442,-14.137 6.995,0 10.492,4.683 10.492,14.137 v 28.383 c 0,15.223 -7.571,32.621 -22.828,52.145 -15.228,19.499 -22.816,38.641 -22.816,57.364 v 15.713 c 0,36.184 11.71,54.291 35.152,54.291 23.475,0 35.172,-18.107 35.172,-54.291 v -22.51 H 0 Z" /></g><g
           transform="translate(714.6997,521.8394)"
           id="g120"><path
             id="path122"
             style="fill:#ffffff;fill-opacity:1;fill-rule:nonzero;stroke:none"
             d="m 0,0 c 10.691,0 16.002,5.526 16.002,16.637 v 40.704 c 0,11.093 -5.444,16.679 -16.349,16.679 H -13.576 V 0 Z M -13.576,-148.055 H -38.254 V 98.682 h 37.907 c 27.35,0 41.044,-18.931 41.044,-56.763 V 32.051 C 40.697,-5.759 27.121,-24.697 0,-24.697 h -13.576 z" /></g><g
           transform="translate(787.1528,437.3369)"
           id="g124"><path
             id="path126"
             style="fill:#ffffff;fill-opacity:1;fill-rule:nonzero;stroke:none"
             d="M 0,0 H 24.693 L 16.364,69.366 12.388,113.181 8.626,69.696 Z M -32.65,-63.553 0,183.185 H 24.956 L 57.668,-63.553 h -24.99 l -4.635,36.992 H -3.381 l -4.306,-36.992 z" /></g><g
           transform="translate(824.5347,621.4766)"
           id="g128"><path
             id="path130"
             style="fill:#ffffff;fill-opacity:1;fill-rule:nonzero;stroke:none"
             d="M 0,0 H 23.845 V -4.224 H 15.78 V -29.567 H 8.065 V -4.224 H 0 Z" /></g><g
           transform="translate(868.0869,600.4839)"
           id="g132"><path
             id="path134"
             style="fill:#ffffff;fill-opacity:1;fill-rule:nonzero;stroke:none"
             d="M 0,0 5.259,20.993 H 15.99 V -8.574 H 8.696 V 12.63 L 3.366,-8.574 H -3.927 L -9.679,12.334 V -8.574 h -6.732 v 29.567 h 10.73 z" /></g></g></g></g></svg>